<svg width="19" height="18" viewBox="0 0 19 18" fill="none" xmlns="http://www.w3.org/2000/svg">
<path d="M6.85449 15.1875C7.16515 15.1875 7.41699 14.9357 7.41699 14.625C7.41699 14.3143 7.16515 14.0625 6.85449 14.0625C6.54383 14.0625 6.29199 14.3143 6.29199 14.625C6.29199 14.9357 6.54383 15.1875 6.85449 15.1875Z" stroke="white" stroke-width="1.5" stroke-linecap="round" stroke-linejoin="round"/>
<path d="M14.7295 15.1875C15.0402 15.1875 15.292 14.9357 15.292 14.625C15.292 14.3143 15.0402 14.0625 14.7295 14.0625C14.4188 14.0625 14.167 14.3143 14.167 14.625C14.167 14.9357 14.4188 15.1875 14.7295 15.1875Z" stroke="white" stroke-width="1.5" stroke-linecap="round" stroke-linejoin="round"/>
<path d="M2.35449 2.8125H4.60449L6.29199 12.375H15.292" stroke="white" stroke-width="1.5" stroke-linecap="round" stroke-linejoin="round"/>
<path d="M6.29199 9.375H15.0614C15.1264 9.37505 15.1895 9.35254 15.2398 9.31133C15.2901 9.27011 15.3246 9.21273 15.3373 9.14895L16.3498 4.08645C16.358 4.04562 16.357 4.0035 16.3469 3.96311C16.3368 3.92272 16.3179 3.88507 16.2915 3.85288C16.2651 3.82069 16.2319 3.79477 16.1943 3.77698C16.1566 3.75918 16.1155 3.74997 16.0739 3.75H5.16699" stroke="white" stroke-width="1.5" stroke-linecap="round" stroke-linejoin="round"/>
</svg>
