<svg width="24" height="25" viewBox="0 0 24 25" fill="none" xmlns="http://www.w3.org/2000/svg">
<g clip-path="url(#clip0_1_2985)">
<path d="M8.36104 1.57996C5.96307 2.41184 3.89506 3.99077 2.46077 6.08484C1.02649 8.17891 0.301526 10.6777 0.392371 13.2143C0.483217 15.7508 1.38508 18.1914 2.9655 20.1775C4.54591 22.1636 6.72158 23.5905 9.17292 24.2487C11.1603 24.7615 13.2424 24.784 15.2404 24.3143C17.0504 23.9078 18.7238 23.0381 20.0967 21.7906C21.5256 20.4525 22.5627 18.7502 23.0967 16.8668C23.6768 14.8187 23.7801 12.6648 23.3985 10.5706H12.2385V15.2H18.7017C18.5725 15.9383 18.2957 16.643 17.8878 17.2719C17.48 17.9008 16.9494 18.4409 16.3279 18.86C15.5388 19.3822 14.6491 19.7335 13.716 19.8912C12.7803 20.0652 11.8205 20.0652 10.8848 19.8912C9.93633 19.6953 9.03912 19.3039 8.25042 18.7418C6.9832 17.8448 6.03168 16.5704 5.53167 15.1006C5.02333 13.6032 5.02333 11.9799 5.53167 10.4825C5.88759 9.43287 6.47598 8.47721 7.25292 7.68683C8.14203 6.76574 9.26766 6.10733 10.5063 5.78385C11.745 5.46038 13.0488 5.48433 14.2748 5.85308C15.2325 6.14694 16.1083 6.66061 16.8323 7.35308C17.561 6.62808 18.2885 5.90121 19.0148 5.17246C19.3898 4.78059 19.7985 4.40746 20.1679 4.00621C19.0627 2.97781 17.7654 2.17753 16.3504 1.65121C13.7736 0.715566 10.9541 0.690421 8.36104 1.57996Z" fill="white"/>
<path d="M8.3607 1.57989C10.9536 0.689751 13.7731 0.714234 16.3501 1.64927C17.7653 2.17917 19.062 2.98329 20.1657 4.01552C19.7907 4.41677 19.3951 4.79177 19.0126 5.18177C18.2851 5.90802 17.5582 6.63177 16.832 7.35302C16.108 6.66054 15.2322 6.14688 14.2745 5.85302C13.0489 5.48297 11.7451 5.45763 10.5061 5.77979C9.26712 6.10194 8.14079 6.75913 7.2507 7.67927C6.47377 8.46965 5.88538 9.4253 5.52945 10.4749L1.64258 7.46552C3.03384 4.70657 5.44273 2.59619 8.3607 1.57989Z" fill="#E33629"/>
<path d="M0.611401 10.4466C0.820163 9.41115 1.16701 8.40844 1.64265 7.46533L5.52953 10.4822C5.02119 11.9796 5.02119 13.6029 5.52953 15.1003C4.23453 16.1003 2.9389 17.1053 1.64265 18.1153C0.452308 15.7459 0.0892746 13.0463 0.611401 10.4466Z" fill="#F8BD00"/>
<path d="M12.2381 10.5688H23.3981C23.7797 12.6631 23.6764 14.8169 23.0963 16.8651C22.5623 18.7485 21.5252 20.4507 20.0963 21.7888C18.8419 20.8101 17.5819 19.8388 16.3275 18.8601C16.9494 18.4406 17.4802 17.8999 17.8881 17.2703C18.296 16.6408 18.5726 15.9354 18.7013 15.1963H12.2381C12.2363 13.6551 12.2381 12.112 12.2381 10.5688Z" fill="#587DBD"/>
<path d="M1.64062 18.1156C2.93687 17.1156 4.2325 16.1106 5.5275 15.1006C6.02851 16.571 6.98138 17.8454 8.25 18.7418C9.04116 19.3013 9.9403 19.6895 10.89 19.8818C11.8257 20.0559 12.7855 20.0559 13.7213 19.8818C14.6543 19.7241 15.544 19.3728 16.3331 18.8506C17.5875 19.8293 18.8475 20.8006 20.1019 21.7793C18.7292 23.0276 17.0558 23.8979 15.2456 24.305C13.2476 24.7747 11.1655 24.7521 9.17813 24.2393C7.60632 23.8197 6.13814 23.0798 4.86563 22.0662C3.51886 20.9967 2.41882 19.6492 1.64062 18.1156Z" fill="#319F43"/>
</g>
<defs>
<clipPath id="clip0_1_2985">
<rect width="24" height="24" fill="white" transform="translate(0 0.790527)"/>
</clipPath>
</defs>
</svg>
