<svg width="24" height="25" viewBox="0 0 24 25" fill="none" xmlns="http://www.w3.org/2000/svg">
<g clip-path="url(#clip0_1_2994)">
<path d="M24 12.7905C24 6.16315 18.6274 0.790527 12 0.790527C5.37262 0.790527 0 6.16315 0 12.7905C0 18.78 4.38825 23.7446 10.125 24.6447V16.2593H7.07812V12.7905H10.125V10.1468C10.125 7.13928 11.9166 5.47803 14.6576 5.47803C15.9705 5.47803 17.3438 5.7124 17.3438 5.7124V8.66553H15.8306C14.3399 8.66553 13.875 9.59056 13.875 10.5396V12.7905H17.2031L16.6711 16.2593H13.875V24.6447C19.6117 23.7446 24 18.7801 24 12.7905Z" fill="#1877F2"/>
<path d="M16.6711 16.2593L17.2031 12.7905H13.875V10.5396C13.875 9.59046 14.3399 8.66553 15.8306 8.66553H17.3438V5.7124C17.3438 5.7124 15.9705 5.47803 14.6575 5.47803C11.9166 5.47803 10.125 7.13928 10.125 10.1468V12.7905H7.07812V16.2593H10.125V24.6447C10.7453 24.742 11.3722 24.7907 12 24.7905C12.6278 24.7907 13.2547 24.742 13.875 24.6447V16.2593H16.6711Z" fill="white"/>
</g>
<defs>
<clipPath id="clip0_1_2994">
<rect width="24" height="24" fill="white" transform="translate(0 0.790527)"/>
</clipPath>
</defs>
</svg>
