<?xml version="1.0" encoding="iso-8859-1"?>
<!-- Uploaded to: SVG Repo, www.svgrepo.com, Generator: SVG Repo Mixer Tools -->
<svg version="1.1" id="Layer_1" xmlns="http://www.w3.org/2000/svg" xmlns:xlink="http://www.w3.org/1999/xlink" 
	 viewBox="0 0 392.506 392.506" xml:space="preserve">
<polygon style="fill:#FFC10D;" points="51.846,268.237 25.664,354.411 366.868,354.411 340.686,268.237 "/>
<path style="fill:#FFFFFF;" d="M338.1,48.956c0-6.012-4.848-10.925-10.925-10.925H65.615c-6.012,0-10.925,4.848-10.925,10.925
	v197.495H338.1V48.956L338.1,48.956z"/>
<path style="fill:#194F82;" d="M392.08,362.104l-32.129-105.632V48.956c0-18.036-14.675-32.711-32.711-32.711H65.615
	c-18.036,0-32.711,14.675-32.711,32.711v206.739L0.581,362.104c-2.457,6.853,3.232,14.158,10.408,14.158h370.683
	C389.494,376.261,393.955,369.15,392.08,362.104z M25.664,354.411l26.182-86.174h288.84l26.182,86.174H25.664z M54.69,48.956
	c0-6.012,4.848-10.925,10.925-10.925h261.56c6.012,0,10.925,4.848,10.925,10.925v197.495H54.69V48.956z"/>
<rect x="77.187" y="59.817" style="fill:#56ACE0;" width="239.774" height="164.848"/>
<g>
	<path style="fill:#194F82;" d="M113.777,94.273h-9.503c-6.012,0-10.925-4.848-10.925-10.925c0-6.077,4.848-10.925,10.925-10.925
		h9.503c6.012,0,10.925,4.848,10.925,10.925C124.702,89.425,119.789,94.273,113.777,94.273z"/>
	<path style="fill:#194F82;" d="M113.777,133.578h-9.503c-6.012,0-10.925-4.848-10.925-10.925c0-6.012,4.848-10.925,10.925-10.925
		h9.503c6.012,0,10.925,4.848,10.925,10.925C124.637,128.665,119.789,133.578,113.777,133.578z"/>
	<path style="fill:#194F82;" d="M113.777,172.754h-9.503c-6.012,0-10.925-4.848-10.925-10.925s4.848-10.925,10.925-10.925h9.503
		c6.012,0,10.925,4.848,10.925,10.925S119.789,172.754,113.777,172.754z"/>
	<path style="fill:#194F82;" d="M113.777,211.93h-9.503c-6.012,0-10.925-4.848-10.925-10.925s4.848-10.925,10.925-10.925h9.503
		c6.012,0,10.925,4.848,10.925,10.925S119.789,211.93,113.777,211.93z"/>
	<path style="fill:#194F82;" d="M182.755,94.273h-18.618c-6.012,0-10.925-4.848-10.925-10.925c0-6.077,4.848-10.925,10.925-10.925
		h18.618c6.012,0,10.925,4.848,10.925,10.925C193.68,89.425,188.702,94.273,182.755,94.273z"/>
	<path style="fill:#194F82;" d="M261.817,94.273h-38.465c-6.012,0-10.925-4.848-10.925-10.925c0-6.077,4.848-10.925,10.925-10.925
		h38.465c6.012,0,10.925,4.848,10.925,10.925C272.742,89.425,267.829,94.273,261.817,94.273z"/>
	<path style="fill:#194F82;" d="M232.532,133.578h-38.465c-6.012,0-10.925-4.848-10.925-10.925c0-6.012,4.848-10.925,10.925-10.925
		h38.465c6.012,0,10.925,4.848,10.925,10.925C243.393,128.665,238.545,133.578,232.532,133.578z"/>
	<path style="fill:#194F82;" d="M229.494,211.93h-38.465c-6.012,0-10.925-4.848-10.925-10.925s4.848-10.925,10.925-10.925h38.465
		c6.012,0,10.925,4.848,10.925,10.925S235.506,211.93,229.494,211.93z"/>
	<path style="fill:#194F82;" d="M155.538,133.578h-9.568c-6.012,0-10.925-4.848-10.925-10.925c0-6.012,4.848-10.925,10.925-10.925
		h9.503c6.012,0,10.925,4.848,10.925,10.925C166.399,128.665,161.615,133.578,155.538,133.578z"/>
	<path style="fill:#194F82;" d="M288.387,133.578h-9.503c-6.012,0-10.925-4.848-10.925-10.925c0-6.012,4.848-10.925,10.925-10.925
		h9.503c6.012,0,10.925,4.848,10.925,10.925C299.312,128.665,294.399,133.578,288.387,133.578z"/>
	<path style="fill:#194F82;" d="M182.755,172.754h-18.618c-6.012,0-10.925-4.848-10.925-10.925s4.848-10.925,10.925-10.925h18.618
		c6.012,0,10.925,4.848,10.925,10.925S188.702,172.754,182.755,172.754z"/>
	<path style="fill:#194F82;" d="M244.945,172.754h-18.618c-6.012,0-10.925-4.848-10.925-10.925s4.848-10.925,10.925-10.925h18.618
		c6.012,0,10.925,4.848,10.925,10.925S251.021,172.754,244.945,172.754z"/>
	<path style="fill:#194F82;" d="M155.538,211.93h-9.568c-6.012,0-10.925-4.848-10.925-10.925s4.848-10.925,10.925-10.925h9.503
		c6.012,0,10.925,4.848,10.925,10.925S161.615,211.93,155.538,211.93z"/>
	<path style="fill:#194F82;" d="M283.668,211.93h-9.503c-6.012,0-10.925-4.848-10.925-10.925s4.849-10.925,10.925-10.925h9.503
		c6.012,0,10.925,4.848,10.925,10.925S289.68,211.93,283.668,211.93z"/>
	<path style="fill:#194F82;" d="M214.431,330.233h-36.461c-6.012,0-10.925-4.848-10.925-10.925s4.848-10.925,10.925-10.925h36.461
		c6.012,0,10.925,4.848,10.925,10.925S220.444,330.233,214.431,330.233z"/>
</g>
</svg>