<svg width="24" height="24" viewBox="0 0 24 24" fill="none" xmlns="http://www.w3.org/2000/svg">
<rect width="24" height="24" rx="12" fill="#E8C14A"/>
<path d="M12.1199 11.1525C12.0449 11.145 11.9549 11.145 11.8724 11.1525C10.0874 11.0925 8.66992 9.63 8.66992 7.83C8.66992 5.9925 10.1549 4.5 11.9999 4.5C13.8374 4.5 15.3299 5.9925 15.3299 7.83C15.3224 9.63 13.9049 11.0925 12.1199 11.1525Z" stroke="white" stroke-width="1.5" stroke-linecap="round" stroke-linejoin="round"/>
<path d="M8.37004 13.92C6.55504 15.135 6.55504 17.115 8.37004 18.3225C10.4325 19.7025 13.815 19.7025 15.8775 18.3225C17.6925 17.1075 17.6925 15.1275 15.8775 13.92C13.8225 12.5475 10.44 12.5475 8.37004 13.92Z" stroke="white" stroke-width="1.5" stroke-linecap="round" stroke-linejoin="round"/>
</svg>
