<?xml version="1.0" ?>
<!DOCTYPE svg  PUBLIC '-//W3C//DTD SVG 1.1//EN'  'http://www.w3.org/Graphics/SVG/1.1/DTD/svg11.dtd'>
<!-- Uploaded to: SVG Repo, www.svgrepo.com, Generator: SVG Repo Mixer Tools -->
<svg width="800px" height="800px" viewBox="0 0 512 512" enable-background="new 0 0 512 512" id="Layer_1" version="1.1" xml:space="preserve" xmlns="http://www.w3.org/2000/svg" xmlns:xlink="http://www.w3.org/1999/xlink">
<g>
<g>
<rect fill="#55939C" height="217.289" width="163.298" x="72.057" y="132.38"/>
<path d="M235.354,359.669H72.057c-5.523,0-10-4.478-10-10V132.38c0-5.522,4.477-10,10-10h163.298    c5.523,0,10,4.478,10,10v217.289C245.354,355.191,240.877,359.669,235.354,359.669z M82.057,339.669h143.298V142.38H82.057    V339.669z" fill="#444B54"/>
</g>
<g>
<rect fill="#F16259" height="68.571" width="163.298" x="72.057" y="200.951"/>
<path d="M235.354,279.522H72.057c-5.523,0-10-4.478-10-10v-68.571c0-5.522,4.477-10,10-10h163.298    c5.523,0,10,4.478,10,10v68.571C245.354,275.045,240.877,279.522,235.354,279.522z M82.057,259.522h143.298v-48.571H82.057    V259.522z" fill="#444B54"/>
</g>
<g>
<rect fill="#F16259" height="25.092" width="421.703" x="45.148" y="103.858"/>
<path d="M466.852,138.95H45.148c-5.523,0-10-4.478-10-10v-25.092c0-5.522,4.477-10,10-10h421.703    c5.522,0,10,4.478,10,10v25.092C476.852,134.473,472.374,138.95,466.852,138.95z M55.148,118.95h401.703v-5.092H55.148V118.95z" fill="#444B54"/>
</g>
<g>
<path d="M235.354,359.669H72.057c-5.523,0-10-4.478-10-10V132.38c0-5.522,4.477-10,10-10h163.298    c5.523,0,10,4.478,10,10v217.289C245.354,355.191,240.877,359.669,235.354,359.669z M82.057,339.669h143.298V142.38H82.057    V339.669z" fill="#444B54"/>
</g>
<g>
<rect fill="#55939C" height="273.145" width="25.514" x="441.338" y="132.607"/>
<path d="M466.852,415.752h-25.514c-5.522,0-10-4.478-10-10V132.607c0-5.522,4.478-10,10-10h25.514    c5.522,0,10,4.478,10,10v273.145C476.852,411.274,472.374,415.752,466.852,415.752z M451.338,395.752h5.514V142.607h-5.514    V395.752z" fill="#444B54"/>
</g>
<g>
<rect fill="#55939C" height="58.473" width="26.137" x="72.057" y="349.669"/>
<path d="M98.193,418.142H72.057c-5.523,0-10-4.478-10-10v-58.473c0-5.522,4.477-10,10-10h26.137    c5.523,0,10,4.478,10,10v58.473C108.193,413.664,103.716,418.142,98.193,418.142z M82.057,398.142h6.137v-38.473h-6.137V398.142z" fill="#444B54"/>
</g>
<g>
<path d="M172.695,180.951h-36.391c-5.523,0-10-4.478-10-10s4.477-10,10-10h36.391c5.523,0,10,4.478,10,10    S178.218,180.951,172.695,180.951z" fill="#444B54"/>
</g>
<g>
<path d="M171.05,245.236H134.66c-5.523,0-10-4.478-10-10s4.477-10,10-10h36.391c5.523,0,10,4.478,10,10    S176.573,245.236,171.05,245.236z" fill="#444B54"/>
</g>
<g>
<path d="M171.901,319.951H135.51c-5.523,0-10-4.478-10-10s4.477-10,10-10h36.391c5.523,0,10,4.478,10,10    S177.424,319.951,171.901,319.951z" fill="#444B54"/>
</g>
<g>
<path d="M235.354,210.951H72.057c-5.523,0-10-4.478-10-10V132.38c0-5.522,4.477-10,10-10h163.298    c5.523,0,10,4.478,10,10v68.571C245.354,206.474,240.877,210.951,235.354,210.951z M82.057,190.951h143.298V142.38H82.057V190.951    z" fill="#444B54"/>
</g>
<g>
<path d="M235.354,279.522H72.057c-5.523,0-10-4.478-10-10v-68.571c0-5.522,4.477-10,10-10h163.298    c5.523,0,10,4.478,10,10v68.571C245.354,275.045,240.877,279.522,235.354,279.522z M82.057,259.522h143.298v-48.571H82.057    V259.522z" fill="#444B54"/>
</g>
<g>
<rect fill="#F16259" height="25.092" width="421.703" x="45.148" y="103.858"/>
<path d="M466.852,138.95H45.148c-5.523,0-10-4.478-10-10v-25.092c0-5.522,4.477-10,10-10h421.703    c5.522,0,10,4.478,10,10v25.092C476.852,134.473,472.374,138.95,466.852,138.95z M55.148,118.95h401.703v-5.092H55.148V118.95z" fill="#444B54"/>
</g>
<g>
<rect fill="#55939C" height="273.145" width="25.514" x="441.338" y="132.607"/>
<path d="M466.852,415.752h-25.514c-5.522,0-10-4.478-10-10V132.607c0-5.522,4.478-10,10-10h25.514    c5.522,0,10,4.478,10,10v273.145C476.852,411.274,472.374,415.752,466.852,415.752z M451.338,395.752h5.514V142.607h-5.514    V395.752z" fill="#444B54"/>
</g>
<g>
<rect fill="#55939C" height="58.473" width="26.137" x="72.057" y="349.669"/>
<path d="M98.193,418.142H72.057c-5.523,0-10-4.478-10-10v-58.473c0-5.522,4.477-10,10-10h26.137    c5.523,0,10,4.478,10,10v58.473C108.193,413.664,103.716,418.142,98.193,418.142z M82.057,398.142h6.137v-38.473h-6.137V398.142z" fill="#444B54"/>
</g>
<g>
<path d="M172.695,180.951h-36.391c-5.523,0-10-4.478-10-10s4.477-10,10-10h36.391c5.523,0,10,4.478,10,10    S178.218,180.951,172.695,180.951z" fill="#444B54"/>
</g>
<g>
<path d="M171.05,245.236H134.66c-5.523,0-10-4.478-10-10s4.477-10,10-10h36.391c5.523,0,10,4.478,10,10    S176.573,245.236,171.05,245.236z" fill="#444B54"/>
</g>
<g>
<path d="M171.901,319.951H135.51c-5.523,0-10-4.478-10-10s4.477-10,10-10h36.391c5.523,0,10,4.478,10,10    S177.424,319.951,171.901,319.951z" fill="#444B54"/>
</g>
<g>
<path d="M235.354,210.951H72.057c-5.523,0-10-4.478-10-10V132.38c0-5.522,4.477-10,10-10h163.298    c5.523,0,10,4.478,10,10v68.571C245.354,206.474,240.877,210.951,235.354,210.951z M82.057,190.951h143.298V142.38H82.057V190.951    z" fill="#444B54"/>
</g>
</g>
</svg>