<svg width="118" height="48" viewBox="0 0 118 48" fill="none" xmlns="http://www.w3.org/2000/svg">
<g clip-path="url(#clip0_465_1043)">
<path d="M0 1.15381H19.5866V7.68269H7.18276V19.7596H17.0405V26.2885H7.18276V40.3172H19.5866V46.8461H0V1.15381Z" fill="#E8C14A"/>
<path d="M29.3056 7.68269H21.7959V1.15381H43.9881V7.68269H36.4784V46.8461H29.2957V7.68269H29.3056Z" fill="#E8C14A"/>
<path d="M50.002 1.15381H59.7309L67.1713 46.8461H59.9885L58.6808 37.771V37.8998H50.5172L49.2094 46.8461H42.5518L50.002 1.15381ZM57.8287 31.6979L54.6287 9.10933H54.4999L51.3692 31.6979H57.8287Z" fill="#E8C14A"/>
<path d="M72.9073 44.498C71.0348 42.4967 70.1035 39.6632 70.1035 36.0174V11.9923C70.1035 8.33649 71.0348 5.51293 72.9073 3.51166C74.7797 1.5104 77.4745 0.509766 81.0015 0.509766C84.5285 0.509766 87.2232 1.5104 89.0957 3.51166C90.9682 5.51293 91.8995 8.3464 91.8995 11.9923V36.0174C91.8995 39.6731 90.9583 42.4967 89.0957 44.498C87.2232 46.4992 84.5285 47.4999 81.0015 47.4999C77.4745 47.4999 74.7797 46.4992 72.9073 44.498ZM84.7266 36.4632V11.5266C84.7266 8.52473 83.4882 7.01883 81.0015 7.01883C78.5148 7.01883 77.2764 8.52473 77.2764 11.5266V36.4632C77.2764 39.4651 78.5148 40.971 81.0015 40.971C83.4882 40.971 84.7266 39.475 84.7266 36.4632Z" fill="#292C2D"/>
<path d="M110.763 7.68269H96.2686V1.15381H117.807V7.41519L106.582 46.8361H99.2705L110.763 7.67278V7.68269Z" fill="#292C2D"/>
</g>
<defs>
<clipPath id="clip0_465_1043">
<rect width="117.817" height="47" fill="white" transform="translate(0 0.5)"/>
</clipPath>
</defs>
</svg>
