<svg width="138" height="55" viewBox="0 0 138 55" fill="none" xmlns="http://www.w3.org/2000/svg">
<g clip-path="url(#clip0_465_3)">
<path d="M0 0.765137H22.9205V8.40531H8.40535V22.5379H19.941V30.1781H8.40535V46.5946H22.9205V54.2348H0V0.765137Z" fill="white"/>
<path d="M34.2938 8.40531H25.5059V0.765137H51.4755V8.40531H42.6876V54.2348H34.2822V8.40531H34.2938Z" fill="white"/>
<path d="M58.5133 0.765137H69.8982L78.605 54.2348H70.1996L68.6693 43.615V43.7658H59.1162L57.5858 54.2348H49.7949L58.5133 0.765137ZM67.6722 36.5082L63.9275 10.0748H63.7768L60.1132 36.5082H67.6722Z" fill="white"/>
<path d="M85.3171 51.4871C83.1259 49.1452 82.0361 45.8295 82.0361 41.563V13.4486C82.0361 9.17053 83.1259 5.86636 85.3171 3.52446C87.5083 1.18255 90.6618 0.0115967 94.7891 0.0115967C98.9164 0.0115967 102.07 1.18255 104.261 3.52446C106.452 5.86636 107.542 9.18213 107.542 13.4486V41.563C107.542 45.8411 106.441 49.1452 104.261 51.4871C102.07 53.8291 98.9164 55 94.7891 55C90.6618 55 87.5083 53.8291 85.3171 51.4871ZM99.1483 42.0847V12.9037C99.1483 9.39081 97.6991 7.62859 94.7891 7.62859C91.8791 7.62859 90.4299 9.39081 90.4299 12.9037V42.0847C90.4299 45.5976 91.8791 47.3598 94.7891 47.3598C97.6991 47.3598 99.1483 45.6092 99.1483 42.0847Z" fill="#E8C14A"/>
<path d="M129.617 8.40531H112.655V0.765137H137.86V8.09229L124.724 54.2232H116.168L129.617 8.39372V8.40531Z" fill="#E8C14A"/>
</g>
<defs>
<clipPath id="clip0_465_3">
<rect width="137.871" height="55" fill="white"/>
</clipPath>
</defs>
</svg>
