<svg width="19" height="11" viewBox="0 0 19 11" fill="none" xmlns="http://www.w3.org/2000/svg">
<path d="M9.9509 9.92995L17.9159 1.57045C18.0489 1.43096 18.123 1.24565 18.123 1.05295C18.123 0.860241 18.0489 0.674931 17.9159 0.535448L17.9069 0.526447C17.8424 0.458594 17.7649 0.404565 17.6789 0.367644C17.5929 0.330724 17.5002 0.311685 17.4067 0.311685C17.3131 0.311685 17.2205 0.330724 17.1345 0.367644C17.0485 0.404565 16.9709 0.458594 16.9064 0.526447L9.4064 8.39845L1.90941 0.526446C1.84495 0.458593 1.76736 0.404563 1.68136 0.367643C1.59536 0.330722 1.50275 0.311683 1.40916 0.311683C1.31557 0.311683 1.22295 0.330722 1.13696 0.367643C1.05096 0.404563 0.973367 0.458593 0.908906 0.526446L0.899905 0.535447C0.766938 0.674929 0.692761 0.860239 0.692761 1.05295C0.692761 1.24565 0.766938 1.43096 0.899905 1.57045L8.8649 9.92995C8.93495 10.0035 9.0192 10.062 9.11253 10.102C9.20587 10.142 9.30636 10.1626 9.4079 10.1626C9.50945 10.1626 9.60994 10.142 9.70327 10.102C9.79661 10.062 9.88086 10.0035 9.9509 9.92995Z" fill="#292C2D"/>
</svg>
