<svg width="12" height="7" viewBox="0 0 12 7" fill="none" xmlns="http://www.w3.org/2000/svg">
<path d="M6.36245 6.6198L11.6725 1.0468C11.7611 0.953814 11.8105 0.830273 11.8105 0.701802C11.8105 0.573331 11.7611 0.449791 11.6725 0.356803L11.6665 0.350802C11.6235 0.305567 11.5718 0.269548 11.5144 0.244934C11.4571 0.22032 11.3953 0.207627 11.333 0.207627C11.2706 0.207627 11.2088 0.22032 11.1515 0.244934C11.0942 0.269548 11.0424 0.305567 10.9995 0.350802L5.99945 5.5988L1.00145 0.350801C0.958479 0.305566 0.906752 0.269547 0.849419 0.244933C0.792086 0.220319 0.730345 0.207626 0.667952 0.207626C0.605559 0.207626 0.543818 0.220319 0.486485 0.244933C0.429152 0.269547 0.377426 0.305566 0.334452 0.350801L0.328452 0.356802C0.239807 0.44979 0.190356 0.57333 0.190356 0.701801C0.190356 0.830272 0.239807 0.953813 0.328452 1.0468L5.63845 6.6198C5.68515 6.66881 5.74131 6.70783 5.80354 6.73449C5.86576 6.76115 5.93275 6.7749 6.00045 6.7749C6.06815 6.7749 6.13514 6.76115 6.19737 6.73449C6.25959 6.70783 6.31575 6.66881 6.36245 6.6198Z" fill="white"/>
</svg>
